#!OML:ASF I:\Random Stuff\random\construction\7_22_03\Session 2\subj1.ASF
:FULLY-SPECIFIED
:DEGREES
621
root 4.02134 17.6505 -12.3741 39.6766 -7.53393 -10.9955
lowerback 43.8039 -4.81679 -6.56289
upperback 13.4882 -9.36997 -9.52967
thorax -6.02336 -4.13481 -3.04422
lowerneck -16.6231 -4.39769 -12.8439
upperneck 29.314 -3.62584 4.37594
head 12.9327 -2.44747 3.30953
rclavicle -1.59028e-014 -1.82882e-014
rhumerus -18.8614 25.9628 -62.6323
rradius 128.412
rwrist -6.37157
rhand -51.5565 31.5652
rfingers 7.12502
rthumb -24.0823 3.05638
lclavicle -1.59028e-014 -1.82882e-014
lhumerus 36.22 -46.4854 42.1529
lradius 122.841
lwrist 50.9351
lhand -21.5791 -474.399
lfingers 7.12502
lthumb -175.185 -324.324
rfemur -62.0263 -5.70644 39.7049
rtibia 33.8379
rfoot -11.5617 8.01148
rtoes -58.1546
lfemur -58.0285 12.7861 4.44505
ltibia 40.4026
lfoot -15.5068 4.23968
ltoes -62.9719
622
root 4.01657 17.6513 -12.3692 39.7293 -7.51431 -11.0086
lowerback 43.7253 -4.82307 -6.4583
upperback 13.4367 -9.32445 -9.42276
thorax -6.05328 -4.11653 -3.00027
lowerneck -16.6574 -4.3901 -12.7464
upperneck 29.3766 -3.59113 4.21843
head 12.9573 -2.44297 3.23759
rclavicle 4.77083e-014 5.00937e-014
rhumerus -18.9427 26.0332 -62.7245
rradius 128.445
rwrist -6.20132
rhand -51.4177 31.4644
rfingers 7.12502
rthumb -23.9492 2.93811
lclavicle 4.77083e-014 5.00937e-014
lhumerus 37.2198 -45.9135 39.7364
lradius 122.96
lwrist 51.2561
lhand -20.7755 -474.63
lfingers 7.12502
lthumb -174.409 -324.537
rfemur -62.0228 -5.66908 39.723
rtibia 33.7873
rfoot -11.5642 7.98306
rtoes -58.2057
lfemur -58.0253 12.8023 4.46596
ltibia 40.3311
lfoot -15.4425 4.31487
ltoes -63.1557
623
root 4.00992 17.6541 -12.3632 39.7815 -7.52895 -11.027
lowerback 43.6026 -4.81803 -6.40758
upperback 13.416 -9.28133 -9.33226
thorax -6.03105 -4.10245 -2.95076
lowerneck -16.8704 -4.27138 -12.5559
upperneck 29.4515 -3.43348 4.14323
head 13.0084 -2.36517 3.20139
rclavicle 1.59028e-013 3.22031e-014
rhumerus -18.8855 26.1006 -62.7404
rradius 128.445
rwrist -6.13125
rhand -51.245 31.4794
rfingers 7.12502
rthumb -23.7836 2.93144
lclavicle 1.59028e-013 3.22031e-014
lhumerus 38.5175 -45.2734 36.9263
lradius 123.032
lwrist 51.9128
lhand -20.3675 -474.386
lfingers 7.12502
lthumb -174.015 -324.281
rfemur -62.001 -5.59682 39.7221
rtibia 33.7411
rfoot -11.5756 7.94282
rtoes -58.2086
lfemur -57.9654 12.7194 4.57441
ltibia 40.2633
lfoot -15.4709 4.5087
ltoes -63.1841
624
root 4.00474 17.6585 -12.3552 39.826 -7.54522 -11.0128
lowerback 43.4631 -4.72322 -6.27914
upperback 13.3597 -9.09699 -9.14663
thorax -6.03277 -4.02542 -2.89455
lowerneck -16.9592 -4.19648 -12.664
upperneck 29.6091 -3.3505 4.34707
head 13.089 -2.32062 3.31678
rclavicle -1.39944e-013 -3.45885e-014
rhumerus -19.1028 25.9444 -62.5455
rradius 128.521
rwrist -6.1055
rhand -51.0871 31.3749
rfingers 7.12502
rthumb -23.6322 2.80728
lclavicle -1.39944e-013 -3.45885e-014
lhumerus 40.2807 -44.6873 34.2258
lradius 122.917
lwrist 52.938
lhand -19.8536 -474.54
lfingers 7.12502
lthumb -173.519 -324.42
rfemur -62.0065 -5.58396 39.718
rtibia 33.7121
rfoot -11.5722 7.97835
rtoes -58.0714
lfemur -57.9118 12.6311 4.63826
ltibia 40.1991
lfoot -15.5551 4.61109
ltoes -63.0269
625
root 4.00135 17.6604 -12.3464 39.8455 -7.5332 -10.9682
lowerback 43.3156 -4.61957 -6.06261
upperback 13.3244 -8.85834 -8.89942
thorax -6.00887 -3.92548 -2.83988
lowerneck -16.9378 -4.2651 -12.9283
upperneck 29.728 -3.41834 4.5076
head 13.1527 -2.36158 3.41715
rclavicle 4.77083e-014 4.75095e-014
rhumerus -19.3658 25.6901 -62.2597
rradius 128.571
rwrist -5.91695
rhand -50.9922 31.1945
rfingers 7.12502
rthumb -23.5411 2.61517
lclavicle 4.77083e-014 4.75095e-014
lhumerus 41.9703 -44.117 31.6232
lradius 122.92
lwrist 54.4819
lhand -19.3993 -474.42
lfingers 7.12502
lthumb -173.08 -324.287
rfemur -62.0235 -5.66501 39.7446
rtibia 33.7017
rfoot -11.5967 8.0584
rtoes -58.0128
lfemur -57.8892 12.6042 4.60311
ltibia 40.1393
lfoot -15.5683 4.6162
ltoes -62.9407
626
root 3.99898 17.6609 -12.3381 39.8265 -7.56027 -10.9032
lowerback 43.2465 -4.59476 -5.96488
upperback 13.2765 -8.77384 -8.73566
thorax -6.0242 -3.89174 -2.74909
lowerneck -16.9806 -4.25313 -12.8837
upperneck 29.7765 -3.37144 4.38552
head 13.1745 -2.35267 3.3696
rclavicle 5.40694e-014 1.35174e-014
rhumerus -19.4223 25.7334 -62.168
rradius 128.521
rwrist -5.56467
rhand -50.8448 31.1429
rfingers 7.12502
rthumb -23.3997 2.54545
lclavicle 5.40694e-014 1.35174e-014
lhumerus 43.3746 -43.1897 28.9659
lradius 122.899
lwrist 56.1366
lhand -19.2483 -474.574
lfingers 7.12502
lthumb -172.935 -324.436
rfemur -61.9984 -5.75029 39.7162
rtibia 33.7079
rfoot -11.6287 8.13905
rtoes -58.013
lfemur -57.8356 12.5971 4.50653
ltibia 40.0899
lfoot -15.5577 4.60953
ltoes -62.9761
627
root 3.99679 17.6627 -12.3305 39.8155 -7.62192 -10.8471
lowerback 43.2025 -4.61243 -5.84394
upperback 13.2206 -8.73955 -8.62158
thorax -6.07037 -3.87769 -2.69974
lowerneck -17.2387 -4.20539 -12.7425
upperneck 29.8867 -3.25348 4.19738
head 13.2565 -2.31152 3.29107
rclavicle -5.08889e-014 3.02153e-014
rhumerus -19.4291 25.8677 -62.0814
rradius 128.528
rwrist -5.28248
rhand -50.6881 30.9506
rfingers 7.12502
rthumb -23.2494 2.33412
lclavicle -5.08889e-014 3.02153e-014
lhumerus 44.8247 -42.1799 26.1878
lradius 122.874
lwrist 57.3663
lhand -18.6108 -474.858
lfingers 7.12502
lthumb -172.319 -324.699
rfemur -61.965 -5.77701 39.6373
rtibia 33.7222
rfoot -11.6448 8.19282
rtoes -57.9326
lfemur -57.764 12.5504 4.45593
ltibia 40.0517
lfoot -15.5811 4.64704
ltoes -62.9642
628
root 3.99425 17.6646 -12.3227 39.8081 -7.65675 -10.8045
lowerback 43.0938 -4.47125 -5.65829
upperback 13.0644 -8.48435 -8.34583
thorax -6.18356 -3.76595 -2.59782
lowerneck -16.6434 -4.30003 -12.9667
upperneck 29.7237 -3.37667 4.12618
head 13.0833 -2.39558 3.28101
rclavicle 2.8625e-014 3.49861e-014
rhumerus -19.9229 25.8733 -61.8234
rradius 128.68
rwrist -4.97294
rhand -50.6573 30.5287
rfingers 7.12502
rthumb -23.2199 1.90848
lclavicle 2.8625e-014 3.49861e-014
lhumerus 46.4757 -41.5408 23.5342
lradius 122.866
lwrist 57.9074
lhand -17.8065 -475.648
lfingers 7.12502
lthumb -171.543 -325.458
rfemur -61.9369 -5.79782 39.584
rtibia 33.7329
rfoot -11.67 8.20588
rtoes -57.8895
lfemur -57.6978 12.4623 4.46168
ltibia 40.023
lfoot -15.6234 4.73009
ltoes -62.9443
629
root 3.99262 17.6668 -12.3136 39.7814 -7.697 -10.7476
lowerback 42.9688 -4.37992 -5.52498
upperback 12.9296 -8.30715 -8.11027
thorax -6.27094 -3.69016 -2.48333
lowerneck -16.0954 -4.31354 -13.0141
upperneck 29.4923 -3.38973 3.90366
head 12.8735 -2.42934 3.19864
rclavicle 3.18055e-015 3.33958e-014
rhumerus -20.2673 26.0182 -61.6253
rradius 128.753
rwrist -4.52539
rhand -50.6528 30.1156
rfingers 7.12502
rthumb -23.2155 1.49481
lclavicle 3.18055e-015 3.33958e-014
lhumerus 47.9689 -40.9518 20.7443
lradius 123.039
lwrist 58.7588
lhand -17.1167 -474.568
lfingers 7.12502
lthumb -170.877 -324.351
rfemur -61.9049 -5.85392 39.5428
rtibia 33.7378
rfoot -11.6971 8.21657
rtoes -57.908
lfemur -57.6268 12.3867 4.43002
ltibia 40.0099
lfoot -15.6486 4.75869
ltoes -62.9374
630
root 3.99108 17.6689 -12.3029 39.7438 -7.80524 -10.7144
lowerback 42.8828 -4.3837 -5.48015
upperback 12.9325 -8.27984 -8.02239
thorax -6.23327 -3.68348 -2.42728
lowerneck -16.2676 -4.27829 -12.6889
upperneck 29.3728 -3.29883 3.53446
head 12.8367 -2.39478 3.00996
rclavicle 4.45278e-014 3.43897e-014
rhumerus -20.0543 26.2636 -61.5206
rradius 128.663
rwrist -4.06434
rhand -50.7156 29.864
rfingers 7.12502
rthumb -23.2758 1.25081
lclavicle 4.45278e-014 3.43897e-014
lhumerus 49.2988 -40.0083 17.7116
lradius 123.326
lwrist 59.9543
lhand -16.8832 -474.447
lfingers 7.12502
lthumb -170.652 -324.219
rfemur -61.8445 -5.8938 39.5121
rtibia 33.748
rfoot -11.7402 8.25689
rtoes -57.9275
lfemur -57.5171 12.394 4.35824
ltibia 40.0147
lfoot -15.6822 4.7665
ltoes -62.9451
